<svg id="praia" xmlns="http://www.w3.org/2000/svg" xmlns:xlink="http://www.w3.org/1999/xlink" viewBox="100 0 1300 980">
  <defs>
    <style>
      .cls-1, .cls-12, .cls-20 {
        fill: none;
      }

      .cls-2 {
        fill: url(#linear-gradient);
      }

      .cls-3 {
        fill: #ffdfa8;
        opacity: 0.7;
      }

      .cls-10, .cls-15, .cls-23, .cls-3, .cls-43, .cls-6, .cls-8 {
        isolation: isolate;
      }

      .cls-4 {
        fill: #f8f3eb;
      }

      .cls-5 {
        fill: url(#linear-gradient-2);
      }

      .cls-10, .cls-13, .cls-6, .cls-8 {
        fill: #eae5da;
      }

      .cls-6 {
        opacity: 0.5;
      }

      .cls-7 {
        fill: url(#linear-gradient-3);
      }

      .cls-15, .cls-8 {
        opacity: 0.3;
      }

      .cls-9 {
        fill: url(#linear-gradient-4);
      }

      .cls-10, .cls-43 {
        opacity: 0.2;
      }

      .cls-11 {
        fill: url(#linear-gradient-5);
      }

      .cls-12 {
        stroke: #eae5da;
      }

      .cls-12, .cls-20 {
        stroke-miterlimit: 10;
      }

      .cls-14 {
        fill: #f4f1ef;
      }

      .cls-15, .cls-23, .cls-43 {
        fill: #4b7cab;
      }

      .cls-16 {
        fill: #edcc91;
      }

      .cls-17 {
        fill: #e85858;
      }

      .cls-18 {
        fill: #e5ac93;
      }

      .cls-19 {
        fill: #dfefef;
      }

      .cls-20 {
        stroke: #00aeb6;
        stroke-width: 3px;
      }

      .cls-21 {
        fill: #836553;
      }

      .cls-22 {
        fill: #74cccf;
      }

      .cls-23 {
        opacity: 0.4;
      }

      .cls-24 {
        fill: #e88764;
      }

      .cls-25 {
        fill: #9ec6c6;
      }

      .cls-26 {
        fill: #ecc4b2;
      }

      .cls-27 {
        fill: #04b6a5;
      }

      .cls-28 {
        clip-path: url(#clip-path);
      }

      .cls-29 {
        fill: #dcd1c7;
      }

      .cls-30 {
        fill: #eabe69;
      }

      .cls-31 {
        clip-path: url(#clip-path-3);
      }

      .cls-32 {
        fill: #f0b171;
      }

      .cls-33 {
        fill: #064a71;
      }

      .cls-34 {
        fill: #0d7288;
      }

      .cls-35 {
        fill: #109fda;
      }

      .cls-36 {
        fill: #1468b3;
      }

      .cls-37 {
        clip-path: url(#clip-path-5);
      }

      .cls-38 {
        fill: #d64792;
      }

      .cls-39 {
        fill: #5797b7;
      }

      .cls-40 {
        fill: #dd7b4f;
      }

      .cls-41 {
        fill: #7fa7c3;
      }

      .cls-42 {
        clip-path: url(#clip-path-13);
      }

      .cls-44 {
        fill: #f7ede4;
      }

      .cls-45 {
        clip-path: url(#clip-path-21);
      }

      .cls-46 {
        clip-path: url(#clip-path-22);
      }
    </style>
    <style>
      #praia {
        animation: inicia-pagina 2.5s ease-in-out forwards 1s;
      }

      #caiaque-1, #caiaque-2  {
        animation: movi-caiaques-1e2 2.5s infinite ease-in-out alternate;
      }

      #caiaque-3 {
        animation: movi-caiaque-3 2.5s infinite ease-in-out alternate;
      }

      #caiaque-4 {
        animation: movi-caiaque-4 2.5s infinite ease-in-out alternate;
      }

      #caiaque-5 {
        animation: movi-caiaque-5 2.5s infinite ease-in-out alternate;
      }

      #nuvem-1, #nuvem-2 {
        animation: movi-nuvem-esq 60s ease-in-out infinite alternate;
      }

      #nuvem-3,  #nuvem-4 {
        animation: movi-nuvem-di 60s ease-in-out infinite alternate;
      }

      @keyframes movi-caiaques-1e2 {
        to {
          transform: translate(4px, -6px)
        }
      }

      @keyframes movi-caiaque-3 {
        to {
          transform: translate(4px, 10px)
        }
      }

      @keyframes movi-caiaque-4 {
        to {
          transform: translate(-4px, 6px)
        }
      }

      @keyframes movi-caiaque-5 {
        to {
          transform: translate(10px, 0)
        }
      }

      @keyframes movi-nuvem-esq {
        to {
          transform: translate(-400px)
        }
      }

      @keyframes movi-nuvem-di {
        to {
          transform: translate(400px)
        }
      }

      @keyframes inicia-pagina {
        from {
          transform: translate(0, -2000px)

        }
      }

    </style>
    <linearGradient id="linear-gradient" x1="700" y1="588.28" x2="700" y2="375.14" gradientTransform="translate(0 384.72)" gradientUnits="userSpaceOnUse">
      <stop offset="0.19" stop-color="#ffead4"/>
      <stop offset="0.9" stop-color="#ffdfa8"/>
    </linearGradient>
    <linearGradient id="linear-gradient-2" x1="699.55" y1="-103.41" x2="699.55" y2="606.93" gradientTransform="translate(0 384.72)" gradientUnits="userSpaceOnUse">
      <stop offset="0.15" stop-color="#99d5e2"/>
      <stop offset="0.77" stop-color="#79c8d7"/>
    </linearGradient>
    <linearGradient id="linear-gradient-3" x1="700" y1="-185.67" x2="700" y2="145.2" gradientTransform="translate(0 384.72)" gradientUnits="userSpaceOnUse">
      <stop offset="0.15" stop-color="#65c4ce"/>
      <stop offset="0.77" stop-color="#3ab7cd"/>
    </linearGradient>
    <linearGradient id="linear-gradient-4" x1="700" y1="-238.06" x2="700" y2="-29.28" gradientTransform="translate(0 384.72)" gradientUnits="userSpaceOnUse">
      <stop offset="0.15" stop-color="#3ec0c5"/>
      <stop offset="0.77" stop-color="#25b1c2"/>
    </linearGradient>
    <linearGradient id="linear-gradient-5" x1="700" y1="-365.84" x2="700" y2="-224.38" gradientTransform="translate(0 384.72)" gradientUnits="userSpaceOnUse">
      <stop offset="0.15" stop-color="#00b8c4"/>
      <stop offset="0.77" stop-color="#00a9b2"/>
    </linearGradient>
    <clipPath id="clip-path" transform="translate(48.61 0)">
      <path class="cls-1" d="M777.8,424c1.3-3.8,2-5.7,2-5.7s.7-1.9,2-5.7-2.6-4.9-2.6-4.9-2.5-.9-7.6-2.7-13.6-4.3-18.6-4.1-18.1-.1-18.1-.1c-25.3-9.2-85.4-30.5-87.1-31.2-2.1-1-.3-5-1.5-5.4s-2.2,2.2-2.2,2.2l-1.3,3.6-1.3,3.6s-.8,2.7.4,3.1,2.3-3.8,4.6-3.3c1.8.5,61.4,20.9,87,29.9l.5.2s10.3,8.4,14.1,11.6,12,6.6,17.1,8.3,7.6,2.7,7.6,2.7S776.5,427.8,777.8,424Z"/>
    </clipPath>
    <clipPath id="clip-path-3" transform="translate(48.61 0)">
      <path class="cls-1" d="M1162.4,163.1c3.3-2.3,5-3.4,5-3.4s1.6-1.1,5-3.4.8-5.5.8-5.5-1.5-2.2-4.6-6.7-8.5-11.5-12.6-14.3-14.6-10.7-14.6-10.7c-15-22.3-51.1-74.9-52-76.5-1.1-2,2.7-4.2,1.9-5.3s-3.1.5-3.1.5l-3.1,2.2-3.1,2.2s-2.2,1.7-1.5,2.8,4.2-1.7,5.6,0c1.2,1.5,37.3,53,52.7,75.4l.2.5s3.4,12.8,4.5,17.7,5.8,12.4,8.9,16.8,4.6,6.7,4.6,6.7A3.68,3.68,0,0,0,1162.4,163.1Z"/>
    </clipPath>
    <clipPath id="clip-path-5" transform="translate(48.61 0)">
      <path class="cls-1" d="M1097.9,427.5c.9-1.7,35.1-56.5,46.5-74.6,0,0,8.1-7.7,11.3-10.7a123.93,123.93,0,0,0,14.3-17.9c3.7-6.1,8.6-13.8,2.4-18.3-6.7-3.7-11.6,4-15.5,10a123.81,123.81,0,0,0-10.1,20.6c-1.4,4.1-4.8,14.8-4.8,14.8-11.5,18-46.3,72.4-47.5,74-1.4,1.8-5-.8-5.7.3s1.6,2.7,1.6,2.7l3.3,2.1,3.3,2.1s2.5,1.4,3.2.3S1096.9,429.6,1097.9,427.5Z"/>
    </clipPath>
    <clipPath id="clip-path-13" transform="translate(48.61 0)">
      <path class="cls-1" d="M368.1,113.6c1.8.8,57.7,33,76.2,43.7,0,0,8,7.8,11.1,10.9a128.77,128.77,0,0,0,18.5,13.7c6.2,3.5,14.1,8.1,18.4,1.7,3.4-6.8-4.5-11.5-10.6-15.1a115.3,115.3,0,0,0-21-9.3c-4.2-1.2-14.9-4.3-14.9-4.3-18.5-10.9-74.1-43.7-75.6-44.8-1.9-1.3.6-5-.5-5.7s-2.7,1.7-2.7,1.7l-1.9,3.3-1.9,3.3s-1.3,2.5-.2,3.2S366,112.6,368.1,113.6Z"/>
    </clipPath>
    <clipPath id="clip-path-21" transform="translate(48.61 0)">
      <rect class="cls-1" x="1171.4" y="124.8" width="228.6" height="256.5"/>
    </clipPath>
    <clipPath id="clip-path-22" transform="translate(48.61 0)">
      <rect class="cls-1" y="46.7" width="382.6" height="318.8"/>
    </clipPath>
  </defs>




  <g id="nuvens">
    <g id="nuvem-4">
      <path class="cls-43" d="M1214.8,633.3a21.26,21.26,0,0,0-14.6,5.8,32.73,32.73,0,0,0-24.6-11.1,32.07,32.07,0,0,0-13.5,2.9,38.67,38.67,0,0,0-68.4,3,25.06,25.06,0,0,0-17.6,14.3,23.28,23.28,0,0,0-3.8-.4,20.2,20.2,0,1,0,15.5,33.2,24.86,24.86,0,0,0,19.2,1.4,38.27,38.27,0,0,0,21.6,6.6,39.12,39.12,0,0,0,22.1-6.9,32.74,32.74,0,0,0,54.9-8.4,20.82,20.82,0,0,0,9,2,21.32,21.32,0,0,0,21.3-21.3A21,21,0,0,0,1214.8,633.3Z" transform="translate(48.61 0)"/>
      <path class="cls-44" d="M1269.2,563.6A30.81,30.81,0,0,0,1248,572a47.65,47.65,0,0,0-55.32-11.89,56.2,56.2,0,0,0-99.36,4.46,36.75,36.75,0,0,0-25.5,20.75,29.81,29.81,0,0,0-5.54-.53,29.4,29.4,0,1,0,22.46,48.36,36.65,36.65,0,0,0,28.18,2,56.17,56.17,0,0,0,63.22-.48,47.7,47.7,0,0,0,79.95-12.23,30.9,30.9,0,1,0,13.09-58.89Z" transform="translate(48.61 0)"/>
    </g>
    <g id="nuvem-3">
      <path class="cls-43" d="M1341.6,338.3a23.52,23.52,0,0,0-5.4.6v-.4a50.87,50.87,0,0,0-97.4-20.6,39.29,39.29,0,0,0-9.2-1.1,40.59,40.59,0,0,0-37.2,24.2,31.51,31.51,0,1,0-10.3,61.3,31.33,31.33,0,0,0,24.2-11.4,40.8,40.8,0,0,0,54.9-7.7,50.72,50.72,0,0,0,57.8-6.7,25.72,25.72,0,1,0,22.6-38.2Z" transform="translate(48.61 0)"/>
      <g class="cls-45">
        <path class="cls-44" d="M1467,228.7a39.67,39.67,0,0,0-7.8.8v-.6a73.11,73.11,0,0,0-140-29.5,57.44,57.44,0,0,0-13.2-1.5,58.49,58.49,0,0,0-53.5,34.8,45.29,45.29,0,1,0,20,71.8,58.4,58.4,0,0,0,78.9-11,72.3,72.3,0,0,0,34.7,8.7,73.09,73.09,0,0,0,48.5-18.4,37,37,0,1,0,32.4-55.1Z" transform="translate(48.61 0)"/>
      </g>
    </g>
    <g id="nuvem-2">
      <path class="cls-43" d="M840.1,177a29.29,29.29,0,0,0-20.2,8,45.12,45.12,0,0,0-34-15.3,44.34,44.34,0,0,0-18.6,4,53.55,53.55,0,0,0-94.6,4.1,34.87,34.87,0,0,0-24.3,19.8,29.57,29.57,0,0,0-5.2-.5,28,28,0,1,0,21.4,46,34.27,34.27,0,0,0,15.7,3.7,33.83,33.83,0,0,0,11-1.8,53.58,53.58,0,0,0,29.9,9.1,52.87,52.87,0,0,0,30.5-9.6,45.3,45.3,0,0,0,75.9-11.7,29,29,0,0,0,12.5,2.8,29.3,29.3,0,1,0,0-58.6Z" transform="translate(48.61 0)"/>
      <path class="cls-44" d="M903.4,73.7a44.33,44.33,0,0,0-30.44,12,68.55,68.55,0,0,0-79.54-17.09,80.89,80.89,0,0,0-143,6.28,52.87,52.87,0,0,0-36.85,30,42.3,42.3,0,1,0,24.5,68.73,52.82,52.82,0,0,0,40.32,2.94,80.9,80.9,0,0,0,91.25-.63,68.58,68.58,0,0,0,114.87-17.48A44.5,44.5,0,1,0,903.4,73.7Z" transform="translate(48.61 0)"/>
    </g>
    <g id="nuvem-1">
      <path class="cls-43" d="M106.5,262.3s18.2-22.9,42.9-18.7,35.9,26.8,35.9,26.8,29.7-3.1,33.8,26-29.4,42.1-46.1,29.1c0,0-22.1,18.7-44.5,7.5,0,0-29.4,18.2-47.4-8.1,0,0-30.4,10.1-34.9-13.5s20-34.1,31.2-28.4C77.6,283.1,80.5,261.5,106.5,262.3Z" transform="translate(48.61 0)"/>
      <g class="cls-46">
        <path class="cls-44" d="M68.4,102.3s35.1-44.2,82.8-36.1,69.3,51.7,69.3,51.7,57.2-6,65.3,50.2-56.7,81.3-88.9,56.2c0,0-42.7,36.1-85.8,14.6,0,0-56.7,35.1-91.4-15.6,0,0-58.7,19.6-67.3-26.1s38.7-65.8,60.2-54.7C12.7,142.4,18.2,100.8,68.4,102.3Z" transform="translate(48.61 0)"/>
      </g>
    </g>
  </g>
</svg>
